<svg xmlns="http://www.w3.org/2000/svg" width="14.529" height="11.623" viewBox="0 0 14.529 11.623">
  <path id="Icon_awesome-door-open" data-name="Icon awesome-door-open" d="M14.165,10.17H12.349V2.575a1.108,1.108,0,0,0-1.09-1.123H8.717V2.906H10.9v8.717h3.269a.363.363,0,0,0,.363-.363v-.726A.363.363,0,0,0,14.165,10.17ZM7.088.023,2.73,1.152a.748.748,0,0,0-.55.73V10.17H.363A.363.363,0,0,0,0,10.533v.726a.363.363,0,0,0,.363.363H7.991V.753a.733.733,0,0,0-.9-.73Zm-1.1,6.515c-.3,0-.545-.325-.545-.726s.244-.726.545-.726.545.325.545.726S6.294,6.538,5.993,6.538Z" transform="translate(0 0)" fill="#fff"/>
</svg>
