<svg xmlns="http://www.w3.org/2000/svg" width="20.904" height="17.349" viewBox="0 0 14.904 11.349">
  <path id="Icon_awesome-door-closed" data-name="Icon awesome-door-closed" d="M14.709,10.7h-2.6V1.173c0-.647-1.121-.866-1.732-.866H4.316c-.611,0-1.732.219-1.732.866V10.7h-2.6c-.2,0,0-.2,0,0v.866c0,.2-.2,0,0,0H14.709c.2,0,0,.2,0,0V10.7C14.709,10.5,14.913,10.7,14.709,10.7Zm-5.2-4.33c-.408,0-.866.408-.866,0A.975.975,0,0,1,9.513,5.5a.975.975,0,0,1,.866.866C10.379,6.777,9.921,6.369,9.513,6.369Z" transform="translate(0.105 -0.307)" fill="#fff"/>
</svg>
