<svg xmlns="http://www.w3.org/2000/svg" width="13.492" height="13.207" viewBox="0 0 13.492 13.207">
  <path id="Icon_metro-tools" data-name="Icon metro-tools" d="M18.438,7.864a3.359,3.359,0,0,1-4.761,4.214l-.929,1.015.663.666.4-.4a.518.518,0,0,1,.733,0l3.213,3.246a.518.518,0,0,1,0,.733l-1.467,1.467a.518.518,0,0,1-.733,0L12.34,15.562a.518.518,0,0,1,0-.733l.362-.362-.632-.633L7.626,18.688a1.037,1.037,0,0,1-1.467,0l-.367-.367a1.037,1.037,0,0,1,0-1.467l5.062-4.239L7.493,9.244H6.431L5.2,7.268l.989-.991L8.212,7.514l.013,1.04,3.4,3.414.989-.828A3.363,3.363,0,0,1,16.6,6.034L14.421,8.183l1.834,1.834,2.183-2.153ZM7.009,17.372a.519.519,0,1,0,0,.734A.519.519,0,0,0,7.009,17.372Z" transform="translate(-5.202 -5.785)" fill="#fff"/>
</svg>
