<svg xmlns="http://www.w3.org/2000/svg" width="14.282" height="12.375" viewBox="0 0 14.282 12.375">
  <g id="Icon_ionic-ios-construct" data-name="Icon ionic-ios-construct" transform="translate(-1.129 -3.375)">
    <path id="Path_1761" data-name="Path 1761" d="M26.719,4.528Z" transform="translate(-14.764 -0.665)" fill="#fff"/>
    <path id="Path_1762" data-name="Path 1762" d="M8.835,3.661a2.2,2.2,0,0,0-1.127-.286,3.667,3.667,0,0,0-1.389.274A7.481,7.481,0,0,0,3.905,5.207,7.086,7.086,0,0,0,3.224,6c-.181.259.057.625-.181.863s-.735,0-.735,0a.157.157,0,0,0-.116.048L1.178,7.917a.162.162,0,0,0,0,.232l1.889,1.877a.162.162,0,0,0,.116.048.157.157,0,0,0,.116-.048l.988-1.035a.162.162,0,0,0,0-.232S4.129,8.6,3.926,8.4s.024-.574.158-.7a.915.915,0,0,1,.628-.2,1.172,1.172,0,0,1,.339.054A4.548,4.548,0,0,1,6.565,8.771l-.116.193a.258.258,0,0,0,.039.309s-.149-.146.39.39l1.487-1.4C7.8,7.7,7.933,7.84,7.933,7.84a.272.272,0,0,0-.187-.068.266.266,0,0,0-.125.03l-.167.089c-.833-.827-1.05-1.2-1.02-1.835a2.119,2.119,0,0,1,.907-1.568,2.453,2.453,0,0,1,1.8-.452C9.382,4.032,9.019,3.78,8.835,3.661Z" fill="#fff"/>
    <path id="Path_1763" data-name="Path 1763" d="M25.3,23.425s-2.05-1.7-3.873-3.442l-1.419,1.505c1.74,1.8,3.418,3.8,3.418,3.8a.162.162,0,0,0,.116.048.157.157,0,0,0,.116-.048L25.3,23.657A.164.164,0,0,0,25.3,23.425Z" transform="translate(-10.894 -9.582)" fill="#fff"/>
    <path id="Path_1764" data-name="Path 1764" d="M17.519,5.687,15.96,7.251l-1.52-.277-.274-1.52L15.725,3.89a1.728,1.728,0,0,0-1.16-.494.379.379,0,0,0-.059,0,2.845,2.845,0,0,0-1.782.883,2.866,2.866,0,0,0-.666,3.1.471.471,0,0,1-.08.586l-.669.634-.345.327c-.238.226-.509.482-.8.75-.113.107-.229.214-.345.327-1.7,1.6-3.775,3.555-3.775,3.555a1.252,1.252,0,0,0,0,1.809,1.333,1.333,0,0,0,.931.381,1.139,1.139,0,0,0,.878-.39S9.8,13.287,11.4,11.588c.11-.119.22-.232.327-.348.277-.294.535-.568.767-.812.116-.125.226-.241.327-.345.342-.363.574-.607.625-.654a.46.46,0,0,1,.33-.152.572.572,0,0,1,.256.071A2.091,2.091,0,0,0,15,9.566a3.2,3.2,0,0,0,2.145-.878A2.757,2.757,0,0,0,18.022,6.9,1.632,1.632,0,0,0,17.519,5.687ZM7.352,14.635a.416.416,0,1,1,0-.589A.42.42,0,0,1,7.352,14.635Z" transform="translate(-2.613 -0.012)" fill="#fff"/>
  </g>
</svg>
