<svg id="invoice-svgrepo-com" xmlns="http://www.w3.org/2000/svg" width="23.32" height="17.771" viewBox="0 0 23.32 17.771">
  <rect id="Rectangle_297" data-name="Rectangle 297" width="6" transform="translate(6.638 12.061)" fill="#fff"/>
  <rect id="Rectangle_298" data-name="Rectangle 298" width="10" height="2" transform="translate(6.638 9.061)" fill="#fff"/>
  <rect id="Rectangle_299" data-name="Rectangle 299" width="10" transform="translate(6.638 5.061)" fill="#fff"/>
  <rect id="Rectangle_300" data-name="Rectangle 300" width="10" height="1" transform="translate(6.638 4.061)" fill="#fff"/>
  <path id="Path_136" data-name="Path 136" d="M22.956,8H.364A.367.367,0,0,0,0,8.37v2.592a.367.367,0,0,0,.364.37H2.915V25.771L6.194,24.29l2.915,1.481L11.66,24.29l2.551,1.481,2.915-1.481L20.4,25.771V11.332h2.551a.367.367,0,0,0,.364-.37V8.37A.367.367,0,0,0,22.956,8ZM2.915,10.592H.729V8.74H2.915Zm16.761,14.04-2.255-1.018-.314-.142-.308.156-2.566,1.3-2.212-1.284-.362-.21-.362.21L9.086,24.931l-2.566-1.3-.308-.156-.314.142L3.644,24.632V8.74H19.676Zm2.915-14.04H20.4V8.74h2.186Z" transform="translate(0 -8)" fill="#fff"/>
</svg>
