<svg xmlns="http://www.w3.org/2000/svg" width="22.822" height="20.287" viewBox="0 0 22.822 20.287">
  <path id="Icon_metro-shop" data-name="Icon metro-shop" d="M10.609,11.284l1-6.657H6.4l-2.18,5.706a2,2,0,0,0-.1.634c0,1.4,1.458,2.536,3.26,2.536a3.093,3.093,0,0,0,3.236-2.219ZM15.524,13.5c1.8,0,3.26-1.136,3.26-2.536,0-.052,0-.1-.006-.153l-.645-6.186H12.916l-.647,6.181c0,.052-.005.1-.005.158,0,1.4,1.459,2.536,3.26,2.536Zm6.34,1.326v5.013H9.185V14.836a5.335,5.335,0,0,1-1.812.314,5.228,5.228,0,0,1-.724-.062v8.05a1.779,1.779,0,0,0,1.773,1.775h14.2A1.781,1.781,0,0,0,24.4,23.139V15.09a5.448,5.448,0,0,1-.724.062A5.269,5.269,0,0,1,21.864,14.829Zm4.97-4.5L24.652,4.627H19.437l1,6.646A3.085,3.085,0,0,0,23.676,13.5c1.8,0,3.26-1.136,3.26-2.536a2.036,2.036,0,0,0-.1-.634Z" transform="translate(-4.113 -4.627)" fill="#fff"/>
</svg>
