<svg xmlns="http://www.w3.org/2000/svg" width="17.303" height="17.303" viewBox="0 0 17.303 17.303">
  <path id="call-2-svgrepo-com" d="M10.546,12.769c-.277-.571-.635-.987-1.254-.734l-1.22.453c-.977.453-1.463,0-1.95-.68l-2.193-5a.914.914,0,0,1,.487-1.363l1.706-.68c.618-.254.52-.791.243-1.363L4.9.681A1.046,1.046,0,0,0,3.44.224a5.737,5.737,0,0,0-2.923,2.5C-.294,4.174.111,6.189.274,7.037A18.993,18.993,0,0,0,1.737,10.9a17.74,17.74,0,0,0,1.95,3.408c.574.68,1.95,2.539,3.656,2.952a6.883,6.883,0,0,0,4.143-.456c.618-.254.622-.791.345-1.366ZM14,4.092H12l2.663,2.664H8.677V8.089h5.988L12.006,10.75h2l3.328-3.33Z" transform="translate(-0.028 -0.103)" fill="#fff"/>
</svg>
