<svg id="home_icon" data-name="home icon" xmlns="http://www.w3.org/2000/svg" width="25" height="25" viewBox="0 0 25 25">
  <path id="Path_2" data-name="Path 2" d="M0,0H25V25H0Z" fill="none"/>
  <path id="Path_1" data-name="Path 1" d="M10.3,19.652V14.444h4.167v5.208a1.045,1.045,0,0,0,1.042,1.042h3.125a1.045,1.045,0,0,0,1.042-1.042V12.361h1.771a.517.517,0,0,0,.344-.906L13.081,3.611a1.05,1.05,0,0,0-1.4,0L2.977,11.454a.519.519,0,0,0,.344.906H5.092v7.292a1.045,1.045,0,0,0,1.042,1.042H9.258A1.045,1.045,0,0,0,10.3,19.652Z" transform="translate(0.117 0.139)" fill="#4e4e4e"/>
</svg>







 