<svg xmlns="http://www.w3.org/2000/svg" width="19.191" height="19.103" viewBox="0 0 19.191 19.103">
  <g id="Group_481" data-name="Group 481" transform="translate(-2080 -2040.322)">
    <g id="bell-svgrepo-com" transform="translate(2069 2039.848)">
      <g id="Group_417" data-name="Group 417" transform="translate(11 0.474)">
        <g id="_x3C_Compound_Path_x3E__1_" transform="translate(0 0)">
          <g id="Group_414" data-name="Group 414">
            <g id="Group_413" data-name="Group 413">
              <path id="Path_134" data-name="Path 134" d="M9.652,19.577c-1.381,0-2.576-1.259-2.954-3.083H.4a.4.4,0,0,1-.286-.67,14.543,14.543,0,0,1,1.135-1.046c.84-.716,1.347-1.148,1.347-2.265V8.821A7.132,7.132,0,0,1,7.66,1.994,1.868,1.868,0,0,1,9.595.474a1.9,1.9,0,0,1,1.932,1.562A7.11,7.11,0,0,1,16.62,8.819v3.815c0,1.082.449,1.449,1.262,2.113a12.594,12.594,0,0,1,1.2,1.077.4.4,0,0,1-.286.67h-6.19C12.228,18.318,11.033,19.577,9.652,19.577ZM7.547,16.637c.354,1.27,1.194,2.149,2.106,2.149s1.75-.88,2.1-2.149ZM1.384,15.7H17.8c-.143-.122-.282-.235-.414-.342a3.121,3.121,0,0,1-1.553-2.726V8.821a6.3,6.3,0,0,0-4.744-6.082.4.4,0,0,1-.3-.358A1.163,1.163,0,0,0,9.6,1.265,1.1,1.1,0,0,0,8.41,2.331a.4.4,0,0,1-.3.364,6.316,6.316,0,0,0-4.72,6.128v3.691a3.43,3.43,0,0,1-1.626,2.867C1.639,15.482,1.514,15.589,1.384,15.7Z" transform="translate(0 -0.474)" fill="#4e4e4e"/>
            </g>
          </g>
        </g>
        <g id="Group_416" data-name="Group 416" transform="translate(7.226 1.3)">
          <g id="Group_415" data-name="Group 415">
            <path id="Path_135" data-name="Path 135" d="M82.777,15.685a.389.389,0,0,1-.115-.018,7.107,7.107,0,0,0-3.847-.1.4.4,0,0,1-.242-.753,7.774,7.774,0,0,1,4.319.094.4.4,0,0,1-.115.774Z" transform="translate(-78.298 -14.561)" fill="#4e4e4e"/>
          </g>
        </g>
      </g>
    </g>
  </g>
</svg>
